<?xml version="1.0" standalone="no"?>
<!DOCTYPE svg PUBLIC "-//W3C//DTD SVG 20010904//EN"
 "http://www.w3.org/TR/2001/REC-SVG-20010904/DTD/svg10.dtd">
<svg version="1.0" xmlns="http://www.w3.org/2000/svg"
 width="192.000000pt" height="192.000000pt" viewBox="0 0 192.000000 192.000000"
 preserveAspectRatio="xMidYMid meet">

<g transform="translate(0.000000,192.000000) scale(0.100000,-0.100000)"
fill="#000000" stroke="none">
<path d="M903 1849 c-4 -16 -8 -17 -14 -7 -17 27 -28 -10 -34 -117 -4 -60 -8
-116 -10 -122 -3 -10 -42 -13 -149 -13 -80 0 -156 -4 -169 -9 -55 -21 -60
-116 -9 -165 28 -26 54 -32 161 -39 19 -1 36 -7 38 -14 2 -6 -20 -37 -49 -69
-57 -62 -148 -181 -148 -193 0 -4 13 -15 29 -24 17 -10 50 -38 74 -62 l45 -45
96 100 c53 55 96 97 96 93 2 -49 12 -197 16 -230 l5 -42 39 14 c25 9 59 12 94
8 l54 -6 -5 122 c-4 69 -2 121 3 121 5 0 38 -27 74 -61 36 -33 80 -72 98 -86
l33 -26 16 24 c20 29 95 99 105 99 29 0 -19 66 -129 181 l-74 76 47 7 c26 3
60 6 75 6 30 0 36 9 19 26 -20 20 -20 130 0 168 l18 36 -28 0 c-16 0 -41 -5
-56 -10 -15 -6 -35 -8 -43 -4 -9 3 -46 5 -83 4 -50 -1 -68 2 -68 12 -1 7 -5
58 -10 112 -6 72 -13 102 -24 108 -8 5 -13 15 -10 22 6 16 -24 26 -79 26 -31
0 -40 -4 -44 -21z m44 -51 c-3 -8 -6 -5 -6 6 -1 11 2 17 5 13 3 -3 4 -12 1
-19z m98 -628 c3 -5 2 -10 -4 -10 -5 0 -13 5 -16 10 -3 6 -2 10 4 10 5 0 13
-4 16 -10z m-104 -237 c-12 -20 -14 -14 -5 12 4 9 9 14 11 11 3 -2 0 -13 -6
-23z"/>
<path d="M446 918 c-12 -16 -16 -47 -16 -115 l0 -93 -133 0 c-155 0 -167 -5
-170 -69 -1 -37 3 -47 31 -72 29 -26 40 -29 97 -29 82 0 83 -10 12 -88 -29
-31 -67 -78 -85 -104 l-32 -47 21 -12 c12 -6 41 -29 64 -50 l42 -39 82 82 81
81 1 -69 c0 -63 8 -155 13 -162 2 -1 17 3 35 9 18 7 55 9 82 6 47 -6 49 -5 44
16 -9 40 -13 164 -6 176 5 7 34 -13 85 -59 l77 -71 52 51 c28 27 55 50 60 50
12 0 -50 79 -116 147 -27 28 -46 56 -43 62 4 6 31 11 61 11 l54 0 -15 35 c-18
44 -18 76 1 121 l15 35 -114 -7 -113 -7 -5 89 c-3 49 -11 101 -18 117 -12 25
-18 27 -71 27 -48 0 -60 -4 -73 -22z"/>
<path d="M1328 912 c-20 -2 -41 -9 -47 -16 -6 -7 -14 -55 -18 -107 l-8 -94
-138 0 c-157 0 -167 -5 -167 -77 0 -60 50 -98 128 -98 20 0 44 -5 52 -10 12
-7 11 -13 -10 -36 -14 -15 -37 -38 -52 -51 -31 -27 -98 -116 -98 -129 0 -5 16
-20 34 -34 19 -14 42 -37 52 -52 22 -33 24 -32 119 62 l75 73 1 -44 c0 -24 0
-77 -1 -118 l-1 -74 33 8 c37 9 81 9 116 0 23 -6 24 -4 17 37 -8 43 -8 106 -1
143 3 11 5 22 5 25 1 2 37 -31 80 -74 l80 -79 59 54 59 54 -26 40 c-14 22 -28
42 -31 45 -38 37 -100 112 -100 120 0 6 25 10 61 10 53 0 60 2 49 15 -15 18
-15 117 0 144 5 11 10 22 10 25 0 3 -49 6 -110 6 l-110 0 -1 48 c-1 77 -9 143
-19 162 -11 20 -38 26 -92 22z"/>
</g>
</svg>
